<?xml version="1.0" encoding="iso-8859-1"?>
<!-- Generator: Adobe Illustrator 18.0.0, SVG Export Plug-In . SVG Version: 6.00 Build 0)  -->
<!DOCTYPE svg PUBLIC "-//W3C//DTD SVG 1.1//EN" "http://www.w3.org/Graphics/SVG/1.1/DTD/svg11.dtd">
<svg version="1.1" id="_x31_" xmlns="http://www.w3.org/2000/svg" xmlns:xlink="http://www.w3.org/1999/xlink" x="0px" y="0px"
	 viewBox="0 0 512 512" style="enable-background:new 0 0 512 512;" xml:space="preserve">
<g>
	<rect style="fill:#9CD1AB;" width="512" height="512"/>
	<polygon style="opacity:0.1;fill:#040000;" points="81.869,363.827 92.416,374.374 97.485,379.443 230.042,512 512,512 
		512,308.787 370.432,167.219 367.309,164.096 356.25,153.037 343.91,153.037 342.067,151.194 335.667,144.794 335.104,144.23 
		317.235,126.362 315.597,126.362 169.933,126.362 167.475,126.362 167.475,144.23 167.475,153.037 144.691,153.037 
		141.517,153.037 141.517,228.403 141.517,239.565 124.774,239.565 94.464,261.734 85.094,268.595 77.466,274.176 74.035,276.685 	
		"/>
	<rect x="344.481" y="198.206" style="fill:none;" width="0.968" height="18.25"/>
	<g>
		<rect x="342.091" y="188.174" style="fill:none;" width="0.942" height="17.752"/>
		<rect x="168.978" y="188.174" style="fill:none;" width="0.942" height="17.752"/>
		<path style="fill:#333333;" d="M438.502,270.238l-9.164,100.701c0,4.681-5.628,8.516-12.451,8.516H95.112
			c-6.823,0-12.451-3.835-12.451-8.516l-0.747-6.473l-8.417-94.228c0-0.298,0.05-0.597,0.099-0.946c0-0.249,0.05-0.497,0.15-0.697
			c0-0.1,0.05-0.15,0.05-0.199l1.444-1.097l2.44-1.792l4.681-3.436c1.146-0.249,2.341-0.349,3.586-0.349h340.103
			c1.245,0,2.44,0.1,3.586,0.349l1.145,0.846l3.536,2.59l1.095,0.798l1.395,0.995l0.697,0.548l0.697,0.548
			c0,0.05,0.05,0.1,0.05,0.199c0.1,0.199,0.149,0.447,0.199,0.697C438.502,269.591,438.502,269.94,438.502,270.238z"/>
		<polygon style="fill:#4F4E4F;" points="438.502,268.595 73.498,268.595 73.796,268.396 75.241,267.299 77.681,265.507 
			82.362,262.071 128.38,228.404 383.619,228.404 429.637,262.071 430.783,262.917 434.319,265.507 435.414,266.305 
			436.809,267.299 437.506,267.848 438.203,268.396 		"/>
		<g>
			<path style="fill:#CB456A;" d="M112.008,268.595v9.098v7.113v9.098c0,1.096,0.538,1.985,1.201,1.985l7.932-7.942l7.932,7.942
				c0.663,0,1.201-0.889,1.201-1.985v-9.098v-7.113v-9.098H112.008z"/>
			<path style="fill:#5B9BD4;" d="M143.9,268.595v9.098v7.113v9.098c0,1.096,0.537,1.985,1.2,1.985l7.932-7.942l7.932,7.942
				c0.663,0,1.201-0.889,1.201-1.985v-9.098v-7.113v-9.098H143.9z"/>
			<path style="fill:#62BC87;" d="M175.791,268.595v9.098v7.113v9.098c0,1.096,0.538,1.985,1.201,1.985l7.932-7.942l7.932,7.942
				c0.663,0,1.201-0.889,1.201-1.985v-9.098v-7.113v-9.098H175.791z"/>
			<path style="fill:#DCDD52;" d="M207.682,268.595v9.098v7.113v9.098c0,1.096,0.537,1.985,1.201,1.985l7.932-7.942l7.932,7.942
				c0.663,0,1.201-0.889,1.201-1.985v-9.098v-7.113v-9.098H207.682z"/>
		</g>
		<path style="fill:#545354;" d="M360.613,337.578H151.398c-1.028,0-1.861,0.906-1.861,2.025v5.123c0,1.118,0.833,2.024,1.861,2.024
			h209.215c1.028,0,1.861-0.906,1.861-2.024v-5.123C362.474,338.484,361.641,337.578,360.613,337.578z"/>
		<polygon style="fill:#333333;" points="367.334,144.237 367.334,250.766 316.884,250.766 316.884,205.943 343.03,205.943 
			343.03,188.163 323.408,188.163 323.408,144.237 		"/>
		<polygon style="fill:#333333;" points="195.116,205.943 195.116,250.766 144.666,250.766 144.666,144.237 188.592,144.237 
			188.592,188.163 168.969,188.163 168.969,205.943 		"/>
		<g>
			<rect x="169.919" y="342.164" style="fill:#FFFFFF;" width="172.172" height="51.547"/>
			<rect x="189.747" y="368.473" style="fill:#CBE2D4;" width="63.491" height="8.642"/>
			<rect x="189.747" y="349.319" style="fill:#CBE2D4;" width="132.518" height="8.642"/>
		</g>
		<path style="fill:#FFFFFF;" d="M315.589,118.29H169.916v134.168h172.168V144.785L315.589,118.29z M189.737,153.998h63.499v8.667
			h-63.499V153.998z M189.737,173.173h132.525v8.666H189.737V173.173z M189.737,194.438h132.525v8.616H189.737V194.438z
			 M322.263,214.26v8.666H189.737v-8.666H322.263z"/>
		<rect x="189.747" y="154.02" style="fill:#CBE2D4;" width="63.491" height="8.642"/>
		<rect x="189.747" y="173.174" style="fill:#CBE2D4;" width="132.517" height="8.642"/>
		<rect x="189.747" y="194.43" style="fill:#CBE2D4;" width="132.517" height="8.642"/>
		<rect x="189.747" y="214.284" style="fill:#CBE2D4;" width="132.517" height="8.642"/>
		<polygon style="fill:#CBE2D4;" points="342.084,144.785 315.589,144.785 315.589,118.29 		"/>
		<circle style="fill:#545354;" cx="342.636" cy="299.822" r="11.206"/>
		<circle style="fill:#545354;" cx="378.54" cy="299.822" r="11.206"/>
	</g>
	<polygon style="fill:none;" points="189.737,181.839 256,181.839 256,181.816 189.746,181.816 189.746,173.174 256,173.174 
		256,173.173 189.737,173.173 	"/>
	<rect x="195.116" y="214.26" style="fill:none;" width="60.884" height="0.024"/>
	<rect x="289.131" y="140.042" style="fill:none;" width="0.001" height="66.262"/>
	<polygon style="fill:none;" points="253.236,162.661 189.746,162.661 189.746,154.02 253.236,154.02 253.236,153.997 
		189.737,153.997 189.737,162.665 253.236,162.665 	"/>
	<rect x="256" y="214.26" style="fill:none;" width="60.884" height="0.024"/>
	<rect x="256" y="181.816" style="fill:none;" width="66.262" height="0.023"/>
	<polygon style="fill:none;" points="168.97,205.944 169.916,205.944 169.916,205.926 168.978,205.926 168.978,188.174 
		169.916,188.174 169.916,188.164 168.97,188.164 	"/>
	<rect x="189.737" y="194.439" style="fill:none;" width="0.009" height="8.615"/>
	<polygon style="fill:none;" points="342.084,205.944 343.03,205.944 343.03,205.926 342.091,205.926 342.091,188.174 
		343.03,188.174 343.03,188.164 342.084,188.164 	"/>
	<path style="opacity:0.1;fill:#3B3B3C;" d="M438.253,268.595h0.249l-0.299-0.199l-0.697-0.549l-0.697-0.549l-1.394-0.994
		l-1.096-0.799l-3.536-2.589l-1.146-0.846l-46.018-33.667h-16.285v-84.167h-25.799l-25.947-25.946H256v54.882h66.262v0.001H256
		v8.642h66.262v0.023H256v32.421h60.884v0.024H256V393.71h86.091v-14.255h74.797c6.823,0,12.451-3.835,12.451-8.516l9.164-100.7
		c0-0.299,0-0.648-0.05-0.946C438.402,269.042,438.353,268.795,438.253,268.595z M343.03,188.174h-0.939v17.752h0.939v0.018h-0.946
		v-17.78h0.946V188.174z"/>
</g>
</svg>
